# xmcd
#
# Track frame offsets: 
#        150
#        20700
#        45148
#        63547
#        83934
#        106958
#        125533
#        150442
#        167304
#        185679
#        213432
#        229505
#        248383
#        263776
#        284245
#        299902
#        316553
#        340818
#
# Disc length: 4760 seconds
#
# Revision: 1
# Processed by: cddbd v1.5.2PL0 Copyright (c) Steve Scherf et al.
# Submitted via: ExactAudioCopy v1.3
#
DISCID=fa129612
DTITLE=Various Artist - Akella Presents - vol. 173 - Blues-Rock  CD2
DYEAR=2019
DGENRE=Blues
TTITLE0=Juniper Inc. - Midnight Women
TTITLE1=Gary Hoey - I Felt Alive
TTITLE2=Rival Sons - Stood By Me
TTITLE3=Cabover Pete - Pourin' Rain
TTITLE4=Shaw Davis and The Black Ties - Fire Inside
TTITLE5=Jason Kane and The Jive - Bossman
TTITLE6=Andy Watts - Voodoo Chile
TTITLE7=Tim Brooks and The Alien Sharecroppers - Down Along The Cove
TTITLE8=Dolls Raiders - Sleeping Man
TTITLE9=Joost De Lange Band - The Rambler
TTITLE10=Blindside Thunder - We Love To Party
TTITLE11=Tyla's Dogs D'Amour - Monster
TTITLE12=Red Rock Roosters - Just Before The Dawn
TTITLE13=The BigBlue - Thus Is The Fate
TTITLE14=David Christensen - Wicca Queen
TTITLE15=Dustin Douglas - No More Tears To Cry
TTITLE16=Mick Clarke - One Horse Town
TTITLE17=Meyer Bliss - Aly
EXTD=
EXTT0=
EXTT1=
EXTT2=
EXTT3=
EXTT4=
EXTT5=
EXTT6=
EXTT7=
EXTT8=
EXTT9=
EXTT10=
EXTT11=
EXTT12=
EXTT13=
EXTT14=
EXTT15=
EXTT16=
EXTT17=
PLAYORDER=
